<svg width="208" height="63" viewBox="0 0 208 63" fill="none" xmlns="http://www.w3.org/2000/svg">
<rect width="208" height="63" rx="22" fill="#4353FF"/>
<path d="M180.204 10.4611C183.452 9.55963 186.441 12.5483 185.539 15.7963L182.559 26.5326C182.224 27.7421 182.429 29.0379 183.122 30.0845L189.274 39.3745C191.135 42.1849 189.216 45.9509 185.848 46.0972L174.717 46.5809C173.463 46.6354 172.294 47.231 171.512 48.2135L164.578 56.9349C162.48 59.5733 158.306 58.9122 157.126 55.7546L153.226 45.3172C152.787 44.1413 151.859 43.2137 150.683 42.7744L140.246 38.8745C137.088 37.6947 136.427 33.5201 139.066 31.4223L147.787 24.4879C148.769 23.7067 149.365 22.5378 149.42 21.2837L149.903 10.1521C150.05 6.78447 153.815 4.86564 156.626 6.72671L165.916 12.8784C166.963 13.5714 168.258 13.7767 169.468 13.441L180.204 10.4611Z" fill="white"/>
<path d="M24.4277 52.216C21.114 52.216 18.4277 49.5297 18.4277 46.216V17C18.4277 13.6863 21.114 11 24.4277 11H42.8757C47.0997 11 50.3637 12.0027 52.6677 14.008C55.0144 16.0133 56.1877 18.8933 56.1877 22.648C56.1877 24.696 55.8251 26.4453 55.0997 27.896C54.2392 29.7245 54.5949 32.456 55.8991 33.9997C55.9987 34.1175 56.0949 34.2376 56.1877 34.36C57.1264 35.5547 57.5957 37.3467 57.5957 39.736C57.5957 43.6187 56.3157 46.6693 53.7557 48.888C51.2384 51.1067 47.6971 52.216 43.1317 52.216H24.4277ZM32.9557 24.152C32.9557 25.6189 34.1449 26.808 35.6117 26.808H38.7157C40.7637 26.808 41.7877 25.8907 41.7877 24.056C41.7877 22.3493 40.7637 21.496 38.7157 21.496H35.6117C34.1449 21.496 32.9557 22.6851 32.9557 24.152ZM32.9557 39.064C32.9557 40.5309 34.1449 41.72 35.6117 41.72H38.7157C40.7637 41.72 41.7877 40.8027 41.7877 38.968C41.7877 37.2613 40.7637 36.408 38.7157 36.408H35.6117C34.1449 36.408 32.9557 37.5971 32.9557 39.064Z" fill="white"/>
<path d="M70.3302 52.216C67.0165 52.216 64.3302 49.5297 64.3302 46.216V17C64.3302 13.6863 67.0165 11 70.3302 11H91.7222C94.7974 11 97.2902 13.4929 97.2902 16.568C97.2902 19.6431 94.7974 22.136 91.7222 22.136H81.6742C80.6492 22.136 79.8182 22.967 79.8182 23.992C79.8182 25.017 80.6492 25.848 81.6742 25.848H89.0982C92.2794 25.848 94.8582 28.4268 94.8582 31.608C94.8582 34.7892 92.2794 37.368 89.0982 37.368H81.6742C80.6492 37.368 79.8182 38.199 79.8182 39.224C79.8182 40.249 80.6492 41.08 81.6742 41.08H91.7222C94.7974 41.08 97.2902 43.5729 97.2902 46.648C97.2902 49.7231 94.7974 52.216 91.7222 52.216H70.3302Z" fill="white"/>
<path d="M117.926 52.216C114.613 52.216 111.926 49.5297 111.926 46.216V27.384C111.926 24.4856 109.577 22.136 106.678 22.136C103.78 22.136 101.43 19.7864 101.43 16.888V16.568C101.43 13.4929 103.923 11 106.998 11H132.342C135.417 11 137.91 13.4929 137.91 16.568V16.888C137.91 19.7864 135.561 22.136 132.662 22.136C129.764 22.136 127.414 24.4856 127.414 27.384V46.216C127.414 49.5297 124.728 52.216 121.414 52.216H117.926Z" fill="white"/>
<path d="M156.088 19.3957C156.065 17.831 157.768 16.8481 159.112 17.6497L164.749 21.0118C166.061 21.794 166.047 23.6981 164.725 24.4616L159.18 27.6626C157.858 28.4262 156.202 27.4858 156.181 25.9589L156.088 19.3957Z" fill="#4353FF"/>
</svg>
