<svg width="373" height="104" viewBox="0 0 373 104" fill="none" xmlns="http://www.w3.org/2000/svg">
<rect width="372.5" height="103.5" rx="33" fill="#2A0044"/>
<rect x="7.5" y="7.5" width="88.764" height="88.764" rx="26" fill="#FF43DC"/>
<path d="M52.0004 25.0371C53.5751 25.0373 54.8518 26.3139 54.8519 27.8887V56.1885L61.7679 49.2725L61.9847 49.0762C63.1049 48.1627 64.758 48.2283 65.8021 49.2725C66.846 50.3166 66.9108 51.9688 65.9974 53.0889L65.8021 53.3057L54.016 65.0908C52.9023 66.2041 51.0974 66.2042 49.9838 65.0908L38.1976 53.3057C37.0844 52.1921 37.0843 50.3862 38.1976 49.2725C39.3114 48.1587 41.1181 48.159 42.2318 49.2725L49.1478 56.1885V27.8887C49.148 26.3138 50.4254 25.0371 52.0004 25.0371Z" fill="white" stroke="white" stroke-width="2" stroke-linecap="round"/>
<path d="M75.1484 72.2593C76.7232 72.2594 77.9998 73.536 78 75.1108C78 76.6858 76.7233 77.9632 75.1484 77.9634H28.8516C27.2767 77.9632 26 76.6858 26 75.1108C26.0002 73.536 27.2768 72.2594 28.8516 72.2593H75.1484Z" fill="white" stroke="white" stroke-width="2" stroke-linecap="round"/>
<path d="M126.832 68V38.4985H140.438C143.522 38.4985 146.164 39.0024 148.363 40.0102C150.562 40.9875 152.257 42.5756 153.448 44.7745C154.639 46.9428 155.234 49.8288 155.234 53.4325C155.234 58.5327 153.936 62.2432 151.341 64.5643C148.745 66.8548 145.11 68 140.438 68H126.832ZM136.681 60.4872H139.247C140.499 60.4872 141.568 60.304 142.454 59.9375C143.339 59.571 144.011 58.8839 144.469 57.876C144.958 56.8682 145.202 55.387 145.202 53.4325C145.202 51.478 144.988 49.9968 144.561 48.989C144.133 47.9811 143.477 47.294 142.591 46.9275C141.705 46.5305 140.591 46.332 139.247 46.332H136.681V60.4872ZM170.2 68.4581C165.741 68.4581 162.428 67.5114 160.259 65.6179C158.121 63.6939 157.053 60.8689 157.053 57.1431C157.053 53.4172 158.137 50.6076 160.305 48.7141C162.473 46.7901 165.772 45.8281 170.2 45.8281C174.659 45.8281 177.972 46.7901 180.141 48.7141C182.339 50.6076 183.439 53.4172 183.439 57.1431C183.439 60.8689 182.355 63.6939 180.186 65.6179C178.018 67.5114 174.689 68.4581 170.2 68.4581ZM170.2 61.3576C171.299 61.3576 172.109 61.0369 172.628 60.3956C173.147 59.7542 173.407 58.6701 173.407 57.1431C173.407 55.6161 173.147 54.5319 172.628 53.8906C172.109 53.2493 171.299 52.9286 170.2 52.9286C169.131 52.9286 168.337 53.2493 167.818 53.8906C167.329 54.5319 167.085 55.6161 167.085 57.1431C167.085 58.6701 167.329 59.7542 167.818 60.3956C168.337 61.0369 169.131 61.3576 170.2 61.3576ZM188.949 68L183.223 46.2862H192.66L194.859 55.4023L196.783 49.5387V46.2862H203.929L206.403 55.4023L208.51 46.2862H217.947L212.221 68H203.471L200.631 59.571L197.791 68H188.949ZM219.526 68V46.2862H228.733L228.962 47.7521C229.756 47.2329 230.841 46.7901 232.215 46.4236C233.589 46.0266 235.055 45.8281 236.613 45.8281C239.27 45.8281 241.209 46.5152 242.43 47.8895C243.652 49.2333 244.263 51.2947 244.263 54.0738V68H234.414V55.2191C234.414 54.4556 234.246 53.9211 233.91 53.6157C233.574 53.2798 233.009 53.1118 232.215 53.1118C231.726 53.1118 231.207 53.234 230.657 53.4783C230.138 53.7226 229.711 54.0128 229.375 54.3487V68H219.526ZM255.726 68.4581C252.794 68.4581 250.717 67.8626 249.496 66.6715C248.305 65.4805 247.709 63.6023 247.709 61.0369V37.1242H257.558V59.8001C257.558 60.4109 257.681 60.8537 257.925 61.1285C258.169 61.3729 258.597 61.495 259.208 61.495C259.605 61.495 259.986 61.4645 260.353 61.4034C260.75 61.3423 261.116 61.2507 261.452 61.1285V67.4045C260.597 67.771 259.757 68.0305 258.933 68.1832C258.139 68.3665 257.07 68.4581 255.726 68.4581ZM275.643 68.4581C271.184 68.4581 267.87 67.5114 265.702 65.6179C263.564 63.6939 262.495 60.8689 262.495 57.1431C262.495 53.4172 263.58 50.6076 265.748 48.7141C267.916 46.7901 271.215 45.8281 275.643 45.8281C280.102 45.8281 283.415 46.7901 285.584 48.7141C287.782 50.6076 288.882 53.4172 288.882 57.1431C288.882 60.8689 287.798 63.6939 285.629 65.6179C283.461 67.5114 280.132 68.4581 275.643 68.4581ZM275.643 61.3576C276.742 61.3576 277.552 61.0369 278.071 60.3956C278.59 59.7542 278.85 58.6701 278.85 57.1431C278.85 55.6161 278.59 54.5319 278.071 53.8906C277.552 53.2493 276.742 52.9286 275.643 52.9286C274.574 52.9286 273.78 53.2493 273.261 53.8906C272.772 54.5319 272.528 55.6161 272.528 57.1431C272.528 58.6701 272.772 59.7542 273.261 60.3956C273.78 61.0369 274.574 61.3576 275.643 61.3576ZM298.374 68.4581C297 68.4581 295.732 68.2138 294.572 67.7251C293.411 67.2365 292.48 66.473 291.778 65.4347C291.075 64.3658 290.724 63.0067 290.724 61.3576C290.724 59.006 291.487 57.2042 293.014 55.952C294.541 54.6694 296.878 54.028 300.023 54.028H305.291V53.7074C305.291 53.0966 304.94 52.6385 304.238 52.3331C303.566 51.9971 302.466 51.8292 300.939 51.8292C299.779 51.8292 298.527 51.936 297.183 52.1498C295.87 52.3331 294.618 52.6079 293.427 52.9744V47.4314C294.587 46.9428 296.038 46.561 297.779 46.2862C299.519 45.9808 301.23 45.8281 302.909 45.8281C306.452 45.8281 309.292 46.561 311.43 48.0269C313.568 49.4623 314.637 51.7375 314.637 54.8526V68H306.024L305.612 66.3508C304.849 66.9922 303.871 67.5114 302.68 67.9084C301.52 68.2749 300.084 68.4581 298.374 68.4581ZM301.947 62.9151C302.711 62.9151 303.352 62.793 303.871 62.5486C304.421 62.2738 304.894 61.9378 305.291 61.5408V59.2045H302.176C300.558 59.2045 299.748 59.8306 299.748 61.0827C299.748 62.3043 300.481 62.9151 301.947 62.9151ZM327.422 68.4581C325.376 68.4581 323.589 68.1069 322.062 67.4045C320.535 66.7021 319.344 65.5721 318.489 64.0146C317.665 62.4265 317.252 60.3498 317.252 57.7844C317.252 55.0969 317.741 52.8828 318.718 51.142C319.696 49.3707 320.994 48.0422 322.612 47.1566C324.261 46.2709 326.063 45.8281 328.018 45.8281C328.903 45.8281 329.774 45.9197 330.629 46.1029C331.515 46.2862 332.278 46.5458 332.919 46.8817V37.1242H342.768V68H334.248L333.79 66.4425C332.935 67.0838 332.003 67.5877 330.995 67.9542C329.988 68.2901 328.796 68.4581 327.422 68.4581ZM330.262 61.4034C330.812 61.4034 331.301 61.3118 331.728 61.1285C332.156 60.9453 332.553 60.701 332.919 60.3956V53.8448C332.217 53.234 331.331 52.9286 330.262 52.9286C329.193 52.9286 328.43 53.3562 327.972 54.2113C327.514 55.0358 327.285 56.2422 327.285 57.8302C327.285 59.4183 327.529 60.4109 328.018 60.8079C328.537 61.2049 329.285 61.4034 330.262 61.4034Z" fill="#FF43DC"/>
<path d="M342.667 56.4308C344.982 53.2278 349.923 53.8505 351.371 57.5278L354.439 65.3182C354.509 65.4961 354.629 65.6502 354.784 65.7622L361.569 70.6668C364.772 72.9821 364.15 77.9232 360.472 79.3714L352.682 82.4389C352.504 82.509 352.35 82.6286 352.238 82.7836L347.333 89.5693C345.018 92.7723 340.077 92.1496 338.629 88.4723L335.561 80.6819C335.491 80.5039 335.371 80.3499 335.216 80.2378L328.431 75.3333C325.228 73.018 325.85 68.0769 329.528 66.6287L337.318 63.5611C337.496 63.4911 337.65 63.3715 337.762 63.2165L342.667 56.4308Z" fill="#FF43DC" stroke="#2A0044" stroke-width="4"/>
<path d="M108.789 27.9063C106.37 24.7812 108.362 20.2167 112.298 19.865L120.638 19.1205C120.828 19.1035 121.01 19.0323 121.161 18.9152L127.781 13.7893C130.906 11.3698 135.471 13.3616 135.822 17.2981L136.567 25.6375C136.584 25.828 136.655 26.0095 136.772 26.1608L141.898 32.7808C144.317 35.9059 142.326 40.4705 138.389 40.8221L130.05 41.5666C129.859 41.5836 129.678 41.6548 129.527 41.7719L122.906 46.8978C119.781 49.3173 115.217 47.3255 114.865 43.389L114.121 35.0496C114.104 34.8591 114.032 34.6776 113.915 34.5264L108.789 27.9063Z" fill="#FF43DC" stroke="#2A0044" stroke-width="4"/>
</svg>
