<svg width="413" height="104" viewBox="0 0 413 104" fill="none" xmlns="http://www.w3.org/2000/svg">
<rect width="413" height="104" rx="33" fill="#001044"/>
<path d="M7 32.3607C7 18.3544 18.3544 7 32.3607 7H70.3993C84.4056 7 95.76 18.3544 95.76 32.3607V70.3993C95.76 84.4056 84.4056 95.76 70.3993 95.76H32.3607C18.3544 95.76 7 84.4056 7 70.3993V32.3607Z" fill="#4353FF"/>
<path d="M66.8188 30.7574C70.0668 29.856 73.0555 32.8446 72.154 36.0926L69.1741 46.8289C68.8384 48.0385 69.0436 49.3342 69.7367 50.3808L75.8884 59.6708C77.7494 62.4813 75.8306 66.2472 72.463 66.3935L61.3314 66.8772C60.0772 66.9317 58.9084 67.5273 58.1271 68.5099L51.1928 77.2312C49.095 79.8697 44.9204 79.2085 43.7406 76.0509L39.8407 65.6136C39.4014 64.4377 38.4737 63.5101 37.2978 63.0707L26.8605 59.1708C23.7029 57.991 23.0417 53.8164 25.6802 51.7186L34.4016 44.7843C35.3841 44.003 35.9797 42.8342 36.0342 41.5801L36.5179 30.4484C36.6642 27.0808 40.4301 25.162 43.2406 27.023L52.5306 33.1747C53.5772 33.8678 54.8729 34.073 56.0825 33.7373L66.8188 30.7574Z" fill="white"/>
<path d="M120.183 70.913C117.537 70.913 114.989 70.6991 112.537 70.2712C111.27 70.0299 110.107 69.7366 109.048 69.3914C107.345 68.8364 106.35 67.1605 106.35 65.3698V64.3078C106.35 61.27 109.592 59.1943 112.537 59.9428C114.833 60.5263 116.876 60.8181 118.666 60.8181C119.833 60.8181 120.747 60.6819 121.409 60.4096C122.07 60.0984 122.401 59.6705 122.401 59.1259C122.401 58.4256 121.779 57.881 120.533 57.492C119.288 57.103 117.654 56.5389 115.631 55.7998C113.218 54.8661 111.311 53.8936 109.911 52.8822C108.51 51.8707 107.498 50.6648 106.876 49.2643C106.292 47.8249 106 46.0355 106 43.8959C106 36.0767 111.506 32.167 122.518 32.167C123.763 32.167 125.144 32.2643 126.662 32.4588C128.218 32.6144 129.716 32.8284 131.156 33.1007C131.268 33.1213 131.379 33.142 131.488 33.1628C133.532 33.5527 134.892 35.3958 134.892 37.4766V38.6436C134.892 41.4735 132.011 43.3167 129.23 42.7872C127.596 42.476 126.156 42.3204 124.911 42.3204C123.938 42.3204 122.946 42.4176 121.934 42.6121C120.923 42.7677 120.417 43.1568 120.417 43.7792C120.417 44.2849 120.864 44.6934 121.759 45.0046C122.654 45.2769 124.074 45.6854 126.02 46.23C129.133 47.0858 131.468 48.1167 133.024 49.3227C134.58 50.4897 135.612 51.8902 136.117 53.524C136.662 55.119 136.935 56.9668 136.935 59.0675C136.935 62.6465 135.534 65.5252 132.732 67.7037C129.931 69.8433 125.748 70.913 120.183 70.913Z" fill="white"/>
<path d="M148.529 80.5995C146.622 80.5995 145.066 80.5023 143.86 80.3078C143.59 80.2628 143.318 80.2094 143.046 80.1477C141.338 79.7607 140.299 78.1181 140.299 76.3672V73.8371C140.299 72.0908 142.055 70.8547 143.801 70.8547C144.969 70.8547 145.941 70.7574 146.72 70.5629C148.088 70.2893 148.313 68.6262 147.716 67.3647L140.395 51.8838C138.371 47.6019 141.495 42.6705 146.232 42.6705H147.95C149.661 42.6705 151.192 43.7682 151.759 45.3818C153.022 48.9714 158.139 49.0068 159.347 45.3985C159.893 43.7689 161.42 42.6705 163.138 42.6705H165.108C169.849 42.6705 173.105 47.4385 171.379 51.8531L165.456 67.0034C163.782 71.2437 161.603 74.5698 158.918 76.9817C156.234 79.3936 152.77 80.5995 148.529 80.5995Z" fill="white"/>
<path d="M183.477 70.3295C179.738 70.3295 176.706 67.299 176.706 63.5606V49.7652C176.706 45.8469 179.883 42.6705 183.803 42.6705H189.143C189.511 42.6705 189.826 42.9356 189.889 43.2986C189.978 43.8159 190.555 44.0888 191.028 43.8607C191.874 43.4526 192.801 43.0948 193.808 42.7872C195.209 42.3204 196.804 42.087 198.594 42.087C200.228 42.087 201.512 42.3009 202.446 42.7288C204.049 43.4339 205.984 43.9039 207.611 43.2554C208.038 43.085 208.476 42.9289 208.925 42.7872C210.442 42.3204 212.213 42.087 214.236 42.087C217.544 42.087 219.937 42.9622 221.415 44.7128C222.894 46.4245 223.633 49.0309 223.633 52.532V63.4148C223.633 67.2337 220.537 70.3295 216.717 70.3295C212.897 70.3295 209.8 67.2337 209.8 63.4148V54.2243C209.8 53.6018 209.684 53.1545 209.45 52.8822C209.256 52.6098 208.828 52.4737 208.166 52.4737C206.972 52.4737 206.532 53.8953 206.532 55.0894V63.8232C206.532 67.4166 203.618 70.3295 200.024 70.3295C196.43 70.3295 193.516 67.4166 193.516 63.8232V53.8741C193.516 52.9405 193.088 52.4737 192.232 52.4737C190.731 52.4737 190.247 54.346 190.247 55.847V63.5606C190.247 67.299 187.216 70.3295 183.477 70.3295Z" fill="white"/>
<path d="M234.498 82C230.597 82 227.435 78.8388 227.435 74.9394V49.8523C227.435 45.8859 230.652 42.6705 234.619 42.6705H239.031C239.427 42.6705 239.781 42.9203 239.914 43.2942C240.124 43.8852 240.845 44.1071 241.387 43.7912C242.113 43.368 242.89 43.0139 243.72 42.7288C244.965 42.3009 246.424 42.087 248.097 42.087C252.261 42.087 255.471 43.1957 257.728 45.413C260.024 47.6304 261.172 51.2094 261.172 56.1499C261.172 61.0904 259.965 64.786 257.553 67.2368C255.179 69.6876 251.852 70.913 247.572 70.913C246.56 70.913 245.49 70.7963 244.362 70.5629C242.979 70.3246 241.56 71.3511 241.56 72.7536V77.0137C241.56 79.7676 239.327 82 236.573 82H234.498ZM244.012 60.8181C244.868 60.8181 245.529 60.4874 245.996 59.8261C246.502 59.1648 246.755 57.9977 246.755 56.3249C246.755 54.6522 246.502 53.5435 245.996 52.9989C245.529 52.4542 244.868 52.1819 244.012 52.1819C243.506 52.1819 243.058 52.2597 242.669 52.4153C241.897 52.6727 241.56 53.531 241.56 54.3448V57.2847C241.56 58.969 242.327 60.8181 244.012 60.8181Z" fill="white"/>
<path d="M382.681 80.5995C380.775 80.5995 379.218 80.5023 378.012 80.3078C377.742 80.2628 377.471 80.2094 377.198 80.1477C375.49 79.7607 374.452 78.1181 374.452 76.3672V73.8371C374.452 72.0908 376.207 70.8547 377.954 70.8547C379.121 70.8547 380.094 70.7574 380.872 70.5629C382.241 70.2893 382.465 68.6262 381.868 67.3647L374.548 51.8838C372.523 47.6019 375.647 42.6705 380.385 42.6705H382.102C383.813 42.6705 385.344 43.7682 385.912 45.3817C387.174 48.9714 392.292 49.0068 393.5 45.3985C394.045 43.7689 395.572 42.6705 397.291 42.6705H399.26C404.001 42.6705 407.258 47.4385 405.531 51.8531L399.608 67.0034C397.935 71.2437 395.756 74.5698 393.071 76.9817C390.386 79.3936 386.923 80.5995 382.681 80.5995Z" fill="white"/>
<path fill-rule="evenodd" clip-rule="evenodd" d="M271.148 31C267.248 31 264.086 34.1612 264.086 38.0606V63.2689C264.086 67.1684 267.248 70.3295 271.148 70.3295C275.049 70.3295 278.211 67.1684 278.211 63.2689V55.0756C278.211 54.1506 278.538 53.2114 279.378 52.8238C279.923 52.5904 280.39 52.4737 280.779 52.4737C282.063 52.4737 282.705 53.135 282.705 54.4577V63.2689C282.705 67.1684 285.867 70.3295 289.767 70.3295H292.777C295.015 70.3295 296.83 68.5154 296.83 66.2775C293.143 62.4206 292.8 55.8004 296.779 51.7936C296.565 48.7312 295.667 46.4098 294.087 44.8295C292.258 43.0011 289.378 42.087 285.448 42.087C284.009 42.087 282.627 42.262 281.304 42.6121C279.864 42.9612 278.211 41.9079 278.211 40.4263V35.7267C278.211 33.1162 276.094 31 273.483 31H271.148ZM336.573 70.3295C336.424 70.3295 336.304 70.2089 336.304 70.06C337.338 69.113 338.171 67.976 338.753 66.7511C340.554 62.9605 340.199 57.8362 336.304 54.3636V51.6332C337.88 48.5309 337.674 45.3179 336.361 42.6705H348.948C349.299 42.6705 349.599 42.9206 349.663 43.2653C349.753 43.75 350.291 44.0097 350.745 43.8161C351.62 43.4421 352.683 43.0991 353.931 42.7872C355.682 42.3204 357.569 42.087 359.592 42.087C362.9 42.087 365.293 42.9622 366.771 44.7128C368.289 46.4245 369.048 49.0309 369.048 52.532V63.2689C369.048 67.1684 365.886 70.3295 361.985 70.3295C358.085 70.3295 354.923 67.1684 354.923 63.2689V54.341C354.923 53.0961 354.281 52.4737 352.997 52.4737C352.608 52.4737 352.141 52.5904 351.596 52.8238C350.756 53.2114 350.429 54.1506 350.429 55.0756V63.2689C350.429 67.1684 347.267 70.3295 343.366 70.3295H336.573ZM309.663 70.3462C309.651 70.1949 309.644 70.0406 309.643 69.8831C309.633 68.5132 309.119 67.2636 308.277 66.3105L303.808 53.2924C303.61 53.3966 303.405 53.4901 303.192 53.5719L302.303 53.914L302.044 54.0197C300.434 54.7206 299.455 55.9497 299.036 57.3244L298.896 57.8926C298.329 60.8709 300.232 64.2682 303.944 64.4564L304.223 64.4648C305.838 64.4761 307.285 65.1875 308.277 66.3105L309.663 70.3462Z" fill="white"/>
<path d="M323.877 42.6542C328.876 39.2009 334.935 45.258 331.481 50.2558C329.826 52.6508 330.359 55.9376 332.668 57.7107C337.546 61.4564 333.85 69.2733 327.904 67.7012L327.229 67.5229C324.447 66.7874 321.557 68.2643 320.525 70.9497L320.182 71.8392C318.018 77.4657 309.672 75.9469 309.629 69.9189C309.608 66.935 307.194 64.5212 304.209 64.5002C298.18 64.4578 296.661 56.1133 302.288 53.9496L303.178 53.6076C305.864 52.575 307.341 49.6859 306.606 46.9044L306.427 46.2305C304.855 40.2852 312.674 36.59 316.42 41.4672C318.194 43.776 321.482 44.3089 323.877 42.6542Z" fill="white"/>
</svg>
